<svg xmlns="http://www.w3.org/2000/svg" id="Layer_1" viewBox="0 0 1059.5 192.7"><style>.st0{fill:#004f5d}</style><g id="Design_1_"><path class="st0" d="M52.6 78.9L0 0 105.2 0 105.2 78.9z"/><path class="st0" d="M52.6 78.9L105.2 157.8 0 157.8 0 78.9z"/><g><path class="st0" d="M271.2 110.7c0-30.3 22-49.2 45.7-49.2 24 0 38.6 13.1 39 45.8h-60.3c.4 29.8 12.1 39.2 30.5 39.2 12.3 0 20.6-4.2 27.4-7.4v5.2c-5.8 5.8-18.8 15.7-36.7 15.7-30.4 0-45.6-19.1-45.6-49.3zm24.4-8.1l35.2-2.8c0-21.8-3.7-32-15-32s-19.7 10.5-20.2 34.8zm67.1 86l5.8-1.6c4.9-1.3 5.8-2.3 5.8-9.9v-94c0-7.6-2.8-9.6-5.6-11.2l-6.3-3.6v-3.1l35.6-3.9-.2 13.5h.7c7.3-7 15.1-13.4 30.5-13.4 17 0 35.4 11.7 35.4 45.1 0 36.3-21.3 53.4-51.6 53.4-4.3 0-10.1-.7-14.4-2 0 0 .2 4.9.2 11.2v7.8c0 7.9.7 8.8 5.6 9.9l7.8 1.6v4.2h-49.1v-4h-.2zm76.6-76.8c0-25.8-8.7-36.8-24-36.8-8.3 0-13.4 2.7-16.8 4.2v67.7c4 4 8.7 6.5 15.5 6.5 16.8-.1 25.3-9.3 25.3-41.6zm43.7 24.4V83.1c0-7-2-9.5-5.2-11.2-3.3-1.7-6.7-3.6-6.7-3.6v-3.1l36.1-3.7v69.1c0 10.7 4.5 15.3 13.7 15.3 7.4 0 14.6-2.7 19.9-4.5V83.1c0-7-2-9.5-5.2-11.2-3.3-1.7-6.7-3.6-6.7-3.6v-3.1l36.1-3.7v77.2c0 8.7.7 9.7 5.6 11.7l6 2.7v3.1l-35.2 3.7.4-14.3h-.9c-7.6 6.4-19.2 14.3-33.9 14.3-14.8.1-24-8.2-24-23.7zm162.5-.7c0-15.3 13-22.2 29.8-26.2l21.3-5.2V87.3c0-13.9-2.3-19.3-14.4-19.3-6.5 0-8.3 1.4-8.8 6.7-.9 9.2-3.4 14.1-12.3 14.1-7.4 0-11-4.2-11-10.1 0-11.6 16.2-17.2 37.2-17.2 22 0 33.6 7.4 33.6 24.4v52.8c0 6 1.1 8.7 4.5 10.5 2.2 1.1 5.4 1.6 8.5 1.6v2.8c-3.1 2.3-10.1 6.4-18.8 6.4-9.9 0-15.7-4.3-17.2-12.1h-.9c-3.2 6.1-12.2 12.3-24.4 12.3-16.8 0-27.1-9.3-27.1-24.7zm51.1 6.8v-29.7l-10.5 1.1c-10.3.9-16.6 5.4-16.6 18.6 0 11.2 5.6 16.7 14.1 16.7 6.5 0 11-3.1 13-6.7zm49.8-4.7V73.2h-11.9v-4.8c13.2-4.7 23.3-12.3 28.3-26.6h7.8v23.5h21.6v7.9h-21.6v62.6c0 8.5 3.1 11.9 11.7 11.9 4.7 0 10.1-1.1 13.5-2v3.2c-4 3.4-12.6 11-26.4 11-14.1.1-23-6.2-23-22.3zm53.3 16l5.8-1.4c4.9-1.4 5.8-2.5 5.8-9.9V83.1c0-7.6-2.4-9.4-5.6-11.2-3.2-1.8-6.3-3.6-6.3-3.6v-3.1l36.8-3.8s-.7 12.2-.7 21.1v59.7c0 7.8.9 8.7 5.8 9.9l5.8 1.4v4.2h-47.3l-.1-4.1zm9-115.5c0-7.4 6.1-13.2 13.9-13.2 7.6 0 13.7 5.8 13.7 13.2s-6.1 13.2-13.7 13.2c-7.8 0-13.9-5.8-13.9-13.2zm44.4 73c0-33.6 23.3-49.6 47.1-49.6 25.8 0 47.3 15.8 47.3 48.5 0 33.6-23.1 50.2-47.3 50.2-25.8 0-47.1-16.4-47.1-49.1zm68.6 1.1c0-34.9-7.6-44.2-22-44.2-13.4 0-20.8 10-20.8 40.2 0 35.3 7 45.4 22 45.4 13.1.1 20.8-9 20.8-41.4zm32.7 41.4l5.8-1.4c4.9-1.4 5.8-2.5 5.8-9.9V83.1c0-7.6-2.4-9.4-5.6-11.2-3.2-1.9-6.3-3.6-6.3-3.6v-3.1l35.5-3.7-.3 13.4h.9c7.9-6.8 19.3-13.4 33.9-13.4 16.4 0 23.8 7.8 23.8 24v56.7c0 7.6 1.1 8.7 5.8 9.9l5.8 1.4v4.2h-46.8v-4.2l5.6-1.4c4.7-1.3 5.4-1.8 5.4-9.9v-51c0-11.6-4.2-15.3-13.7-15.3-7.4 0-15.3 2.2-19.9 3.3v63.1c0 8.1.7 8.7 5.4 9.9l5.6 1.4v4.2h-46.8l.1-4.2zM198.2 140c0 10.2 1.1 11.1 6.3 12.2l7 1.4v4.2h-53.7v-4.2l7-1.4c4.8-.9 6.5-2 6.5-12.2V52.4c0-10.2-1.6-11.1-6.5-12.2l-7-1.4v-4.2h55.5c32.5 0 45.6 13.6 45.6 30.5s-13.4 30.6-29 33.9v.5s23.2 35 33.3 48.1c2 2.5 3.6 3.6 7.2 4.7l4.3 1.3v4.2h-34.9l-41.6-62.3h9.1c16 0 25.1-5.7 25.1-27.2 0-21.2-5.7-26.6-20.6-26.6h-13.6V140zm392.4-2.4V73.2h-11.9v-4.8C591.9 63.6 602 56 607 41.8h7.8v23.5h21.6v7.9h-21.6v62.6c0 8.5 3.1 11.9 11.7 11.9 4.7 0 10.1-1.1 13.5-2v3.2c-4 3.4-12.6 11-26.4 11-14.2.1-23-6.2-23-22.3z"/></g></g></svg>